<svg width="24" height="24" viewBox="0 0 24 24" fill="none" xmlns="http://www.w3.org/2000/svg">
    <path fill-rule="evenodd" clip-rule="evenodd" d="M16.6518 18.4446C17.5308 17.129 18 15.5823 18 14L18 13H17H16L11 13V8V7V6H10C8.41775 6 6.87104 6.46919 5.55544 7.34824C4.23985 8.22729 3.21447 9.47672 2.60897 10.9385C2.00347 12.4003 1.84504 14.0089 2.15372 15.5607C2.4624 17.1126 3.22433 18.538 4.34315 19.6569C5.46197 20.7757 6.88743 21.5376 8.43928 21.8463C9.99113 22.155 11.5997 21.9965 13.0615 21.391C14.5233 20.7855 15.7727 19.7602 16.6518 18.4446ZM10 13V8V7C8.61553 7 7.26215 7.41054 6.11101 8.17971C4.95986 8.94888 4.06266 10.0421 3.53284 11.3212C3.00303 12.6003 2.86441 14.0078 3.1345 15.3656C3.4046 16.7235 4.07129 17.9708 5.05025 18.9497C6.02922 19.9287 7.2765 20.5954 8.63437 20.8655C9.99223 21.1356 11.3997 20.997 12.6788 20.4672C13.9579 19.9373 15.0511 19.0401 15.8203 17.889C16.5895 16.7378 17 15.3845 17 14H16H11H10V13Z" fill="white"/>
    <path fill-rule="evenodd" clip-rule="evenodd" d="M14 4.0718C14.5753 4.15484 15.1393 4.3094 15.6788 4.53284C16.5281 4.88463 17.2997 5.40024 17.9497 6.05025C18.5998 6.70026 19.1154 7.47194 19.4672 8.32122C19.6906 8.86065 19.8452 9.42469 19.9282 10L14 10V4.0718ZM13 4V3C14.0506 3 15.0909 3.20693 16.0615 3.60896C17.0321 4.011 17.914 4.60028 18.6569 5.34315C19.3997 6.08601 19.989 6.96793 20.391 7.93853C20.7931 8.90914 21 9.94943 21 11H20H14H13V10V4Z" fill="white"/>
</svg>
