<svg width="24" height="25" viewBox="0 0 24 25" fill="none" xmlns="http://www.w3.org/2000/svg">
    <path d="M17.8 19.998H7C4.2 19.998 2 17.598 2 14.698C2 11.998 3.9 9.79805 6.4 9.49805C7.5 7.29805 9.7 5.99805 12 5.99805C15 5.99805 17.6 8.19805 18.1 11.198C20.3 11.398 22 13.298 22 15.598C22 17.998 20.1 19.998 17.8 19.998ZM12 6.99805C10 6.99805 8.2 8.09805 7.3 9.99805L7.1 10.398L6.6 10.498C4.6 10.698 3 12.498 3 14.698C3 17.098 4.8 18.998 7 18.998H17.7C19.5 18.998 20.9 17.498 20.9 15.598C20.9 13.798 19.6 12.398 17.9 12.198H17.2L17.1 11.498C16.7 8.89805 14.5 6.99805 12 6.99805Z" fill="white"/>
</svg>
