<svg width="24" height="24" viewBox="0 0 24 24" fill="none" xmlns="http://www.w3.org/2000/svg">
    <circle cx="12" cy="12" r="9.5" stroke="white"/>
    <circle cx="12" cy="11" r="2.5" stroke="white"/>
    <mask id="path-4-inside-1" fill="white">
        <path fill-rule="evenodd" clip-rule="evenodd" d="M3.96094 17.9489C5.44327 15.0132 8.48645 13 11.9998 13C15.5132 13 18.5563 15.0132 20.0387 17.9489C18.2168 20.4068 15.2943 22 11.9998 22C8.70527 22 5.78286 20.4068 3.96094 17.9489Z"/>
    </mask>
    <path d="M3.96094 17.9489L3.06828 17.4982L2.79024 18.0488L3.15757 18.5444L3.96094 17.9489ZM20.0387 17.9489L20.8421 18.5443L21.2094 18.0488L20.9313 17.4981L20.0387 17.9489ZM4.8536 18.3996C6.17247 15.7877 8.87827 14 11.9998 14V12C8.09462 12 4.71408 14.2387 3.06828 17.4982L4.8536 18.3996ZM11.9998 14C15.1214 14 17.8271 15.7876 19.146 18.3996L20.9313 17.4981C19.2855 14.2387 15.905 12 11.9998 12V14ZM19.2353 17.3534C17.5939 19.5678 14.9642 21 11.9998 21V23C15.6245 23 18.8396 21.2458 20.8421 18.5443L19.2353 17.3534ZM11.9998 21C9.03541 21 6.40573 19.5679 4.7643 17.3534L3.15757 18.5444C5.15999 21.2458 8.37514 23 11.9998 23V21Z" fill="white" mask="url(#path-4-inside-1)"/>
</svg>
