<svg width="32" height="32" viewBox="0 0 32 32" fill="none" xmlns="http://www.w3.org/2000/svg">
<circle cx="16" cy="16" r="11" fill="#101F2A"/>
<path fill-rule="evenodd" clip-rule="evenodd" d="M21 13C21 11.6739 20.4732 10.4021 19.5355 9.46447C18.5979 8.52678 17.3261 8 16 8C14.6739 8 13.4021 8.52678 12.4645 9.46447C11.5268 10.4021 11 11.6739 11 13H13C13 12.4067 13.1759 11.8266 13.5056 11.3333C13.8352 10.8399 14.3038 10.4554 14.8519 10.2284C15.4001 10.0013 16.0033 9.94189 16.5853 10.0576C17.1672 10.1734 17.7018 10.4591 18.1213 10.8787C18.5409 11.2982 18.8266 11.8328 18.9424 12.4147C19.0581 12.9967 18.9987 13.5999 18.7716 14.1481C18.5446 14.6962 18.1601 15.1648 17.6667 15.4944C17.1734 15.8241 16.5933 16 16 16C15.7348 16 15.4804 16.1054 15.2929 16.2929C15.1054 16.4804 15 16.7348 15 17V20H17V17.9C18.1294 17.6695 19.1444 17.0558 19.8733 16.1629C20.6022 15.27 21.0002 14.1527 21 13ZM17 23C17 23.5523 16.5523 24 16 24C15.4477 24 15 23.5523 15 23C15 22.4477 15.4477 22 16 22C16.5523 22 17 22.4477 17 23Z" fill="white"/>
</svg>
