<svg width="116" height="24" viewBox="0 0 116 24" fill="none" xmlns="http://www.w3.org/2000/svg">
<path d="M7.4731 0H0.718301C0.31771 0 0 0.332595 0 0.73171V6.69182C0 7.09093 0.31771 7.42353 0.718301 7.42353H7.4731C7.87369 7.42353 8.1914 7.09093 8.1914 6.69182V0.73171C8.1914 0.332595 7.87369 0 7.4731 0Z" fill="white"/>
<path d="M16.8947 0H10.1399C9.73934 0 9.42163 0.332595 9.42163 0.73171V6.69182C9.42163 7.09093 9.73934 7.42353 10.1399 7.42353H16.8947C17.2953 7.42353 17.613 7.09093 17.613 6.69182V0.73171C17.613 0.332595 17.2953 0 16.8947 0Z" fill="white"/>
<path d="M26.4661 0H19.6146C19.2279 0 18.9102 0.305988 18.9102 0.678495V6.74504C18.9102 7.11754 19.2279 7.42353 19.6146 7.42353H26.4661C26.8529 7.42353 27.1706 7.11754 27.1706 6.74504V0.678495C27.1706 0.305988 26.8529 0 26.4661 0ZM25.6926 6.03993H20.3882V1.3836H25.6926V6.03993Z" fill="white"/>
<path d="M7.51411 8.27527H0.759317C0.358726 8.27527 0.0410156 8.60786 0.0410156 9.00698V14.9937C0.0410156 15.4061 0.358726 15.7254 0.759317 15.7254H7.51411C7.9147 15.7254 8.23241 15.3928 8.23241 14.9937V9.00698C8.23241 8.60786 7.9147 8.27527 7.51411 8.27527Z" fill="white"/>
<path d="M16.936 8.27493H10.1812C9.7806 8.27493 9.46289 8.60753 9.46289 9.00664V14.9934C9.46289 15.4058 9.7806 15.7251 10.1812 15.7251H16.936C17.3366 15.7251 17.6543 15.3925 17.6543 14.9934V9.00664C17.6543 8.60753 17.3366 8.27493 16.936 8.27493Z" fill="white"/>
<path d="M26.3833 8.27493H19.6285C19.2279 8.27493 18.9102 8.60753 18.9102 9.00664V14.9934C18.9102 15.4058 19.2279 15.7251 19.6285 15.7251H26.3833C26.7838 15.7251 27.1016 15.3925 27.1016 14.9934V9.00664C27.1016 8.60753 26.7838 8.27493 26.3833 8.27493Z" fill="white"/>
<path d="M7.51411 16.5499H0.759317C0.358726 16.5499 0.0410156 16.8825 0.0410156 17.2816V23.2683C0.0410156 23.6807 0.358726 24 0.759317 24H7.51411C7.9147 24 8.23241 23.6674 8.23241 23.2683V17.2816C8.23241 16.8825 7.9147 16.5499 7.51411 16.5499Z" fill="white"/>
<path d="M16.936 16.5499H10.1812C9.7806 16.5499 9.46289 16.8825 9.46289 17.2816V23.2683C9.46289 23.6807 9.7806 24 10.1812 24H16.936C17.3366 24 17.6543 23.6674 17.6543 23.2683V17.2816C17.6543 16.8825 17.3366 16.5499 16.936 16.5499Z" fill="white"/>
<path d="M26.4245 16.5499H19.6697C19.2691 16.5499 18.9514 16.8825 18.9514 17.2816V23.2683C18.9514 23.6807 19.2691 24 19.6697 24H26.4245C26.8251 24 27.1428 23.6674 27.1428 23.2683V17.2816C27.1428 16.8825 26.8251 16.5499 26.4245 16.5499Z" fill="white"/>
<path d="M86.6647 7.30372C85.974 7.02434 84.9794 6.878 83.681 6.878H78.2937V17.255H83.681C84.6617 17.255 85.4629 17.1752 86.0845 17.0022C86.7061 16.8426 87.2586 16.5499 87.7283 16.1508C88.8334 15.2062 89.3859 13.8492 89.3859 12.0532C89.3859 11.0288 89.2064 10.1374 88.8334 9.37911C88.3775 8.42124 87.6454 7.72944 86.6647 7.30372ZM85.6701 15.1663C85.1728 15.419 84.4407 15.5521 83.4738 15.5521H80.3934V8.58088H83.4738C84.2059 8.58088 84.786 8.6474 85.2419 8.79375C85.6977 8.94009 86.0845 9.16625 86.4022 9.49885C86.9686 10.0975 87.2587 10.949 87.2587 12.0665C87.2448 13.6097 86.7199 14.6341 85.6701 15.1663ZM101.556 8.15516C100.478 7.18398 99.0139 6.69174 97.1629 6.69174C94.7041 6.71835 92.9498 7.55649 91.9414 9.20616C91.3889 10.0709 91.1264 11.0155 91.1264 12.0665C91.1264 12.7716 91.2646 13.4501 91.527 14.0887C91.8309 14.8204 92.2729 15.4457 92.8393 15.9778C93.9167 16.949 95.3672 17.4412 97.2044 17.4412C99.6493 17.4412 101.404 16.6031 102.467 14.9135C103.02 14.0488 103.282 13.1175 103.282 12.133C103.268 10.4966 102.702 9.17956 101.556 8.15516ZM100.823 13.5033C100.602 14.0088 100.285 14.4346 99.8566 14.7805C99.1521 15.3658 98.268 15.6585 97.2044 15.6585C96.1269 15.6585 95.2428 15.3658 94.5384 14.7805C93.6957 14.0887 93.2813 13.184 93.2813 12.0532C93.2813 10.9224 93.6957 10.0177 94.5384 9.31259C95.2428 8.72723 96.1269 8.43454 97.1905 8.43454C98.2542 8.44785 99.1383 8.74053 99.8566 9.31259C100.699 10.0044 101.114 10.9357 101.114 12.1064C101.114 12.5853 101.017 13.051 100.823 13.5033ZM111.543 11.8536L115.687 6.878H113.297L110.424 10.2838L107.606 6.878H105.147L109.098 11.9601L104.843 17.255H107.233L110.217 13.5299L113.228 17.255H115.825L111.543 11.8536Z" fill="white"/>
<path d="M41.4263 11.827C42.5452 11.3747 43.0977 10.643 43.0977 9.63191C43.0977 8.71395 42.7938 8.02215 42.186 7.54321C41.8821 7.30374 41.523 7.13079 41.1086 7.02436C40.6942 6.91793 40.1416 6.87802 39.451 6.87802H32.7791V17.255H39.52C40.1969 17.255 40.7771 17.2018 41.2329 17.0821C41.6888 16.9623 42.0893 16.7761 42.4347 16.4967C43.1115 15.9645 43.4431 15.2195 43.4431 14.2749C43.4431 13.0776 42.78 12.2528 41.4263 11.827ZM34.8925 8.58091H39.1609C39.8101 8.58091 40.2798 8.67404 40.5699 8.86029C40.8599 9.04654 40.9981 9.35253 40.9981 9.79156C40.9981 10.2173 40.8461 10.5366 40.5422 10.7361C40.266 10.9091 39.8101 11.0022 39.1471 11.0022H34.8787V8.58091H34.8925ZM40.6804 15.2461C40.335 15.4457 39.7687 15.5521 39.0089 15.5521H34.8925V12.7184H39.0227C39.7963 12.7184 40.3488 12.8115 40.6942 13.0111C41.1086 13.2372 41.3158 13.6231 41.3158 14.1419C41.302 14.6475 41.0948 15.02 40.6804 15.2461ZM45.8052 17.255H47.9048V6.87802H45.8052V17.255ZM60.1159 13.8359L53.0158 6.87802H51.1234V17.255H53.0434V10.1508L60.3231 17.255H62.0222V6.87802H60.1159V13.8359ZM71.07 6.87802H69.2052L64.2185 17.255H66.1524L67.52 14.6075H72.5757L73.9432 17.255H76.181L71.07 6.87802ZM68.114 13.184L70.0755 9.48557L72.0094 13.184H68.114Z" fill="white"/>
</svg>
